<?xml version="1.0" encoding="UTF-8"?>
<svg width="100px" height="100px" viewBox="0 0 100 100" version="1.1" xmlns="http://www.w3.org/2000/svg" xmlns:xlink="http://www.w3.org/1999/xlink">
    <!-- Generator: Sketch 52.6 (67491) - http://www.bohemiancoding.com/sketch -->
    <title>star</title>
    <desc>Created with Sketch.</desc>
    <g id="Page-1" stroke="none" stroke-width="1" fill="none" fill-rule="evenodd">
        <g id="star" fill="#000000" fill-rule="nonzero">
            <path d="M22.3815918,99.8253303 C21.2860107,99.8253303 20.198059,99.4696392 19.2695617,98.7709604 C17.5399781,97.4664951 16.7320252,95.2243711 17.2027588,93.0608486 L23.6358643,63.5710429 L1.81884766,43.6602833 C0.215148828,42.2033791 -0.397491406,39.8961508 0.260925391,37.7850293 C0.919341992,35.6778772 2.71072383,34.186039 4.83169551,33.9819931 L33.6982727,31.2547638 L45.111084,3.46084228 C45.9526062,1.41879451 47.8691102,0.100038211 49.9984742,0.100038211 C52.1278381,0.100038211 54.044342,1.41879451 54.8858643,3.45607846 L66.2986756,31.2547638 L95.160675,33.9819931 C97.2862244,34.1812754 99.0776063,35.6778772 99.736023,37.7850293 C100.39444,39.8921811 99.7856141,42.2033791 98.1819152,43.6602833 L76.3648986,63.5670732 L82.7980041,93.056085 C83.2695008,95.2243711 82.460785,97.4664951 80.7319641,98.7669907 C79.006958,100.067486 76.7066955,100.167524 74.8901367,99.031377 L49.9984742,83.5516705 L25.1068115,99.0401106 C24.2652893,99.56015 23.3276367,99.8253303 22.3815918,99.8253303 Z M49.9984742,76.8832571 C50.9445191,76.8832571 51.8814086,77.1476435 52.7236937,77.6676829 L76.2153625,92.289126 L70.1438904,64.4555069 C69.7105408,62.4745935 70.3567504,60.4063453 71.8276977,59.0661522 L92.427826,40.2653392 L65.1733398,37.6897549 C63.2110596,37.5031758 61.5234375,36.2193535 60.7566834,34.3376841 L49.9984742,8.10864451 L39.2272949,34.3416541 C38.4689332,36.2106199 36.7813109,37.4944423 34.8236084,37.6810213 L7.56530762,40.2566057 L28.1646729,59.0574187 C29.6401977,60.4015815 30.2856445,62.46586 29.8484803,64.451537 L23.7815857,92.2843622 L47.2732543,77.6676829 C48.1147766,77.1476435 49.0524293,76.8832571 49.9984742,76.8832571 Z" id="Shape"></path>
        </g>
    </g>
</svg>